<svg width="19" height="25" viewBox="0 0 19 25" fill="none" xmlns="http://www.w3.org/2000/svg">
    <path fill-rule="evenodd" clip-rule="evenodd" d="M13.553 14.4579L16.8834 10.6236C17.1467 10.3206 17.1734 9.79407 16.943 9.44782C16.9245 9.41991 16.9046 9.39369 16.8834 9.36927L13.5326 5.51177C13.281 5.22215 12.9015 5.23973 12.6661 5.55195L12.6628 5.55628C12.4412 5.85008 12.4424 6.32485 12.6658 6.61656C12.6726 6.62549 12.6796 6.63414 12.6867 6.64251L14.8223 9.16315H6.33475C5.98497 9.16315 5.70135 9.53633 5.70135 9.99658C5.70135 10.4568 5.98497 10.8299 6.33475 10.8299H14.8223L12.7154 13.2317C12.4592 13.5236 12.4314 14.0335 12.6533 14.3706C12.6564 14.3754 12.6596 14.3801 12.6628 14.3847L12.667 14.3908C12.8991 14.7272 13.2931 14.7569 13.553 14.4578L13.553 14.4579ZM11.4036 4.16682C11.0537 4.16682 10.7701 3.79349 10.7701 3.3331V1.66682H3.80033C3.45054 1.66682 3.16692 2.03985 3.16692 2.5001V17.5001C3.16692 17.9604 3.45054 18.3334 3.80033 18.3334H10.7701V16.6671C10.7701 16.2067 11.0537 15.8334 11.4036 15.8334C11.7536 15.8334 12.0372 16.2067 12.0372 16.6671V18.3334C12.0332 19.1668 11.3999 20.0001 10.7701 20.0001H3.16708C2.53357 20.0001 1.89995 19.1668 1.89995 18.3334V1.66696C1.89995 0.83353 2.53357 0.000244141 3.16708 0.000244141H10.7665C11.3998 0.000244141 12.0331 0.850816 12.0331 1.66696L12.0359 3.33324C12.0365 3.79264 11.7541 4.16596 11.4049 4.16696H11.4035L11.4036 4.16682Z" fill="#003366"/>
</svg>
