<svg xmlns="http://www.w3.org/2000/svg" width="32.009" height="33.001" viewBox="0 0 32.009 33.001">
  <g id="Group_7083" data-name="Group 7083" transform="translate(0.5)">
    <g id="Group_7081" data-name="Group 7081" transform="translate(15.03)">
      <path id="Path_75534" data-name="Path 75534" d="M57.79,2.5h-9.9A3.3,3.3,0,0,0,44.6,5.789v6.866a3.3,3.3,0,0,0,3.289,3.289h.145v2.421a1.678,1.678,0,0,0,1.084,1.554,1.637,1.637,0,0,0,.578.108,1.655,1.655,0,0,0,1.229-.578L54,15.943H57.79a3.3,3.3,0,0,0,3.289-3.289V5.789A3.3,3.3,0,0,0,57.79,2.5Zm1.554,10.155a1.542,1.542,0,0,1-1.554,1.554H53.635a.9.9,0,0,0-.65.289l-3.18,3.65V15.076a.879.879,0,0,0-.867-.867H47.925a1.542,1.542,0,0,1-1.554-1.554V5.789a1.542,1.542,0,0,1,1.554-1.554h9.9a1.542,1.542,0,0,1,1.554,1.554v6.866Z" transform="translate(-44.6 -2.5)" fill="#036"/>
      <path id="Path_75535" data-name="Path 75535" d="M57.679,13.1a1.865,1.865,0,0,0-.181,3.722,2.819,2.819,0,0,1-1.156,1.084.49.49,0,0,0-.253.47.5.5,0,0,0,.723.47,4.235,4.235,0,0,0,2.71-3.9A1.806,1.806,0,0,0,57.679,13.1Z" transform="translate(-51.753 -9.269)" fill="#036"/>
      <path id="Path_75536" data-name="Path 75536" d="M70.479,13.1a1.865,1.865,0,0,0-.181,3.722,2.819,2.819,0,0,1-1.156,1.084.49.49,0,0,0-.253.47.5.5,0,0,0,.723.47,4.235,4.235,0,0,0,2.71-3.9A1.806,1.806,0,0,0,70.479,13.1Z" transform="translate(-59.927 -9.269)" fill="#036"/>
    </g>
    <g id="Group_7082" data-name="Group 7082" transform="translate(0 11.779)">
      <path id="Path_75537" data-name="Path 75537" d="M16.53,957.342a1.787,1.787,0,0,0-1.862,1.273.706.706,0,0,0-.015.14v2.421l-2.325,4.843a.714.714,0,0,0-.5-.206H7.59a2.714,2.714,0,0,0-.471.047A2.618,2.618,0,0,0,5,968.382c0,2.475,0,4.983,0,7.1a2.689,2.689,0,0,0,.78,1.914,2.5,2.5,0,0,0,1.81.662H9.945a2.4,2.4,0,0,0,1.95-.795,2.478,2.478,0,0,0,.383-.684c.1.031.19.086.287.11a7.128,7.128,0,0,0,1.347.191h8.278a.7.7,0,0,0,.14-.015,3.178,3.178,0,0,0,1.354-.662,2.149,2.149,0,0,0,.854-1.339c0-.017.006-.034.007-.052a2.766,2.766,0,0,0-.162-1.192,2.179,2.179,0,0,0,.25-.162,1.829,1.829,0,0,0,.559-.9,1.563,1.563,0,0,0,.059-.37,3.248,3.248,0,0,0-.081-.839,2.33,2.33,0,0,0,.478-.368,1.951,1.951,0,0,0,.488-.929,2.235,2.235,0,0,0,.056-.469c0-.008,0-.015,0-.022a2.179,2.179,0,0,0-.478-1.443c-.006-.007-.016-.008-.022-.015.01-.012.019-.017.029-.03a2.467,2.467,0,0,0,.471-1.546c0-.005,0-.01,0-.015a2.226,2.226,0,0,0-2.116-2.091c-.178-.017-.353-.022-.5-.028H18.811a25.9,25.9,0,0,0,.552-3.481c0-.012,0-.025,0-.037a3.208,3.208,0,0,0-2.789-3.54H16.53Zm.007,1.413c.648.048,1.426.493,1.413,2.083-.1,1.416-.456,2.7-.7,4.151a.738.738,0,0,0,.7.824h5.681c.937-.038,1.154.421,1.148.692,0,.007,0,.015,0,.022a.924.924,0,0,1-.169.677,3.5,3.5,0,0,1-.5.412.707.707,0,0,0,.155,1.2,1.066,1.066,0,0,1,.383.235c.069.079.137.18.132.523,0,.007,0,.015,0,.022a.469.469,0,0,1-.147.412,1.583,1.583,0,0,1-.567.324.738.738,0,0,0-.39.986,1.1,1.1,0,0,1,.162.81c-.012.171-.03.176-.125.258a2.42,2.42,0,0,1-.6.3.707.707,0,0,0-.191,1.207c.071.058.242.233.213.78a1.012,1.012,0,0,1-.338.434,1.955,1.955,0,0,1-.714.361H13.984a6.241,6.241,0,0,1-1.082-.147,1.884,1.884,0,0,1-.368-.133v-7.117l.39-.258a.71.71,0,0,0,.25-.28L16,961.647a.709.709,0,0,0,.066-.309V958.88c0-.009.039-.123.471-.125Zm-8.97,8.471h3.554c-.006,2.824,0,5.784,0,8.228a1.565,1.565,0,0,1-.3.9.879.879,0,0,1-.839.294H7.568a1.061,1.061,0,0,1-.809-.272,1.225,1.225,0,0,1-.346-.905v-7.036a1.114,1.114,0,0,1,1.155-1.207Z" transform="translate(-5 -957.342)" fill="#036" stroke="#036" stroke-width="1"/>
    </g>
  </g>
</svg>
