<svg width="36" height="37" viewBox="0 0 36 37" fill="none" xmlns="http://www.w3.org/2000/svg">
<path d="M31.1351 0H4.86486C2.17807 0 0 2.23858 0 5V32C0 34.7614 2.17807 37 4.86486 37H31.1351C33.8219 37 36 34.7614 36 32V5C36 2.23858 33.8219 0 31.1351 0Z" fill="#BECCDC" style="opacity: 0.1"/>
<path d="M15.857 13.3961H6.82176C6.71343 13.3961 6.60616 13.3747 6.50614 13.3331C6.40611 13.2915 6.3153 13.2306 6.23893 13.1537C6.16255 13.0769 6.10213 12.9858 6.06113 12.8855C6.02012 12.7853 5.99936 12.6779 6.00002 12.5696V6.82157C6.00002 6.60368 6.08659 6.39471 6.2407 6.24063C6.39481 6.08656 6.60382 6 6.82176 6H15.857C16.0749 6 16.284 6.08656 16.4381 6.24063C16.5922 6.39471 16.6788 6.60368 16.6788 6.82157V12.5696C16.6794 12.6779 16.6586 12.7853 16.6176 12.8855C16.5766 12.9858 16.5162 13.0769 16.4398 13.1537C16.3635 13.2306 16.2727 13.2915 16.1726 13.3331C16.0726 13.3747 15.9653 13.3961 15.857 13.3961V13.3961ZM7.64251 11.749H15.0403V7.64214H7.64251V11.749Z" fill="white"/>
<path d="M15.857 28.994H6.82175C6.60398 28.994 6.39512 28.9076 6.24104 28.7538C6.08696 28.5999 6.00026 28.3912 6 28.1735V15.8549C6 15.637 6.08658 15.428 6.24068 15.274C6.39479 15.1199 6.60381 15.0333 6.82175 15.0333H15.857C16.0749 15.0333 16.2839 15.1199 16.4381 15.274C16.5922 15.428 16.6787 15.637 16.6787 15.8549V28.1735C16.6785 28.3912 16.5918 28.5999 16.4377 28.7538C16.2836 28.9076 16.0748 28.994 15.857 28.994ZM7.6425 27.3519H15.0402V16.6755H7.6425V27.3519Z" fill="white"/>
<path d="M28.1782 29H19.143C19.0347 29 18.9274 28.9786 18.8274 28.937C18.7273 28.8954 18.6365 28.8344 18.5602 28.7576C18.4838 28.6808 18.4234 28.5896 18.3824 28.4894C18.3414 28.3891 18.3206 28.2818 18.3212 28.1735V22.4255C18.3212 22.2076 18.4078 21.9986 18.5619 21.8445C18.716 21.6904 18.9251 21.6039 19.143 21.6039H28.1782C28.3962 21.6039 28.6052 21.6904 28.7593 21.8445C28.9134 21.9986 29 22.2076 29 22.4255V28.1745C29.0005 28.2827 28.9796 28.3899 28.9386 28.4901C28.8975 28.5902 28.8371 28.6813 28.7607 28.758C28.6844 28.8347 28.5936 28.8956 28.4936 28.9371C28.3937 28.9786 28.2865 29 28.1782 29V29ZM19.9637 27.3579H27.3615V23.246H19.9637V27.3579Z" fill="white"/>
<path d="M28.1782 19.9607H19.143C18.9252 19.9607 18.7164 19.8743 18.5623 19.7204C18.4082 19.5666 18.3215 19.3579 18.3213 19.1401V6.82157C18.3213 6.60368 18.4078 6.39471 18.5619 6.24063C18.7161 6.08656 18.9251 6 19.143 6H28.1782C28.3962 6 28.6052 6.08656 28.7593 6.24063C28.9134 6.39471 29 6.60368 29 6.82157V19.1401C28.9997 19.3579 28.913 19.5666 28.759 19.7204C28.6049 19.8743 28.396 19.9607 28.1782 19.9607V19.9607ZM19.9638 18.3186H27.3615V7.64214H19.9638V18.3186Z" fill="white"/>
<path d="M16.2219 6.72455H7.22464V12.7214H16.2219V6.72455Z" fill="white"/>
<path d="M16.2219 15.7199H7.22464V28.7131H16.2219V15.7199Z" fill="white"/>
<path d="M28.2182 22.7163H19.221V27.7137H28.2182V22.7163Z" fill="white"/>
<path d="M28.2182 6.72455H19.221V19.7178H28.2182V6.72455Z" fill="white"/>
</svg>
