<svg width="24" height="24" viewBox="0 0 24 24" fill="none" xmlns="http://www.w3.org/2000/svg">
  <path d="M11.9789 19.1829C10.0881 19.1377 8.32246 18.3681 6.99839 17.0096C5.65302 15.6295 4.92443 13.8072 4.94747 11.878C4.95709 11.055 5.11344 10.2506 5.38924 9.49221L6.35336 10.4696C6.58326 10.7024 6.89234 10.8269 7.20725 10.8269C7.35858 10.8269 7.51172 10.7988 7.65704 10.7388C8.10622 10.5578 8.40246 10.1226 8.40831 9.63726L8.47926 3.61805C8.48287 3.29823 8.3602 2.99144 8.13731 2.76223C7.91442 2.53421 7.61074 2.40363 7.29168 2.40001L1.21472 2.3307C0.741476 2.31664 0.285701 2.61396 0.095639 3.06439C-0.0949773 3.51338 0.00464098 4.03428 0.347189 4.38106L1.80539 5.85943C0.754304 7.65079 0.168005 9.70331 0.142554 11.8215C0.0884346 16.459 2.63763 20.7269 7.12005 22.9435C8.63095 23.6906 10.3207 24 12.0054 24H12.0423C13.5718 24 14.7736 22.5642 14.3617 20.9524C14.0909 19.8937 13.0691 19.2089 11.9789 19.183L11.9789 19.1829ZM23.6525 19.619L22.1943 18.1407C23.2454 16.3493 23.8317 14.2968 23.8572 12.1786C23.9113 7.54093 21.3619 3.27266 16.8792 1.05609C15.3688 0.309343 13.6791 -0.000205612 11.9948 1.0246e-07H11.9579C10.4288 1.0246e-07 9.22711 1.43476 9.63823 3.04596C9.90862 4.10586 10.9321 4.79073 12.0232 4.81722C13.9132 4.86282 15.6781 5.63246 17.0018 6.99028C18.3471 8.37063 19.0757 10.1927 19.0527 12.1221C19.043 12.9452 18.8867 13.7495 18.6109 14.5079L17.6468 13.5306C17.4169 13.2977 17.1078 13.1732 16.7929 13.1732C16.6416 13.1732 16.4884 13.2015 16.3431 13.2614C15.8939 13.4422 15.5977 13.8771 15.5918 14.3627L15.5209 20.3819C15.5173 20.7015 15.6399 21.0085 15.8628 21.2377C16.0857 21.4657 16.3894 21.5963 16.7085 21.5999L22.7854 21.6692C23.2587 21.6833 23.7144 21.3858 23.9045 20.9355C24.0949 20.4865 23.9953 19.9656 23.6528 19.6189L23.6525 19.619Z" fill="white"/>
</svg>
