<svg xmlns="http://www.w3.org/2000/svg" width="168" height="168" viewBox="0 0 2644.246 2644.242">
  <g id="Group_4644" data-name="Group 4644" transform="translate(17681.998 4699.001)">
    <path id="Path_60324" data-name="Path 60324" d="M1340.691,281.662c729.919,1.136,1320.821,593.571,1320.064,1323.491S2067.867,2926.283,1337.947,2925.9,16.511,2333.7,16.51,1603.783C17.173,873.066,609.974,281.188,1340.691,281.66" transform="translate(-17698.508 -4980.661)" fill="#eb2232" fill-rule="evenodd"/>
    <path id="Path_60325" data-name="Path 60325" d="M1008.459,1142.58h0V893.557l315.91,2.058c152.124,1.029,226.214,122.623,226.214,249.711,0,351.408-541.266,426.7-541.78-2.746m0-660.463h0c582.77-305.79,634.221,365.99,282.295,333.919H1007.43Zm507.823,364.619c417.783-160.013,68.6-782.915-615.184-397.545A533.053,533.053,0,0,0,658.419,337.541c-168.931-34.3-395.487-4.458-522.572,114.224l61.4,60.2C305.293,400.485,543.512,364.637,682.6,440.444c55.053,30.355,97.414,76.147,107.018,131.887l3.087,572.306h0c-25.04,397.545-537.15,366.847-536.978,0V893.557H658.419v-75.8H43.75v247.139c1.544,469.747,572.994,548.81,855.975,320.194,81.293,74.263,241.306,124.516,401.319,123.483,507.308-3.427,611.754-550.527,214.208-661.831Z" transform="translate(-17250.186 -4288.252)" fill="#fff" fill-rule="evenodd"/>
  </g>
</svg>
