<svg xmlns="http://www.w3.org/2000/svg" width="164.861" height="37" viewBox="0 0 164.861 37">
  <g id="Group_5390" data-name="Group 5390" transform="translate(-88 -37)">
    <path id="Path_416" data-name="Path 416" d="M262.754,335.884h0a4.46,4.46,0,0,0,3.307,1.716,3.277,3.277,0,0,0,.72-.077,1.772,1.772,0,0,0,.576-.24,1.277,1.277,0,0,0,.382-.427,1.351,1.351,0,0,0,.139-.629.939.939,0,0,0-.115-.48,1.3,1.3,0,0,0-.3-.367,2.2,2.2,0,0,0-.418-.274,2.971,2.971,0,0,0-.461-.2c-.286-.118-.571-.226-.854-.322s-.564-.2-.85-.319c-.161-.055-.358-.127-.581-.214a6.46,6.46,0,0,1-.72-.324,5.689,5.689,0,0,1-.72-.454,3.386,3.386,0,0,1-.643-.629,3.148,3.148,0,0,1-.466-.833,2.952,2.952,0,0,1-.178-1.07,2.371,2.371,0,0,1,.365-1.317,3.12,3.12,0,0,1,.974-.96,4.694,4.694,0,0,1,1.375-.574,6.405,6.405,0,0,1,1.584-.192,8.485,8.485,0,0,1,2.357.3,5.4,5.4,0,0,1,1.941,1.015l-1.233,1.9c-.216-.214-.425-.406-.634-.578a3.985,3.985,0,0,0-.653-.439,3.316,3.316,0,0,0-.754-.278,4.319,4.319,0,0,0-.931-.091,2.487,2.487,0,0,0-.754.1,1.592,1.592,0,0,0-.518.281,1.108,1.108,0,0,0-.3.408,1.226,1.226,0,0,0-.1.48.859.859,0,0,0,.134.48,1.386,1.386,0,0,0,.353.358,2.351,2.351,0,0,0,.48.262c.182.074.365.142.552.2.293.108.59.211.886.312s.59.2.883.307c.146.058.324.12.535.2a5.014,5.014,0,0,1,.646.293,4.219,4.219,0,0,1,.665.437,3,3,0,0,1,.593.612,3.118,3.118,0,0,1,.42.84,3.3,3.3,0,0,1,.166,1.1,2.5,2.5,0,0,1-.389,1.385,3.3,3.3,0,0,1-1.017,1,4.958,4.958,0,0,1-1.44.614,6.559,6.559,0,0,1-1.653.206,12.11,12.11,0,0,1-1.421-.082,6.62,6.62,0,0,1-1.27-.283,5.209,5.209,0,0,1-1.147-.538,5.129,5.129,0,0,1-1.025-.854Zm-10.418-8h0v7.739a2.048,2.048,0,0,0,.132.775,1.44,1.44,0,0,0,.35.528,1.284,1.284,0,0,0,.518.3,2.061,2.061,0,0,0,.641.091,6.959,6.959,0,0,0,1.6-.192,5.007,5.007,0,0,0,1.5-.6v-8.639H259.8v9.328a6.587,6.587,0,0,0,.065.78c.038.338.1.734.185,1.188h-2.58c-.014-.043-.038-.12-.067-.24s-.065-.24-.1-.372-.06-.257-.089-.374a2.356,2.356,0,0,1-.05-.264,5.213,5.213,0,0,1-.8.581,6,6,0,0,1-.931.461,5.791,5.791,0,0,1-.979.3,4.4,4.4,0,0,1-.941.105,4.944,4.944,0,0,1-1.874-.3,3.023,3.023,0,0,1-1.2-.842,3.12,3.12,0,0,1-.641-1.253,6.156,6.156,0,0,1-.185-1.55v-7.543Zm-12.4,9.508h0a6.481,6.481,0,0,0,1.022.257,7.286,7.286,0,0,0,1.2.1,2.417,2.417,0,0,0,1.176-.3,2.7,2.7,0,0,0,.917-.852,4.321,4.321,0,0,0,.6-1.361,7.076,7.076,0,0,0,.214-1.814,6.722,6.722,0,0,0-.158-1.5,3.269,3.269,0,0,0-.492-1.157,2.277,2.277,0,0,0-.85-.741,2.756,2.756,0,0,0-1.243-.262,5.4,5.4,0,0,0-.674.046c-.226.034-.442.077-.653.13a4.846,4.846,0,0,0-.59.182,2.775,2.775,0,0,0-.48.24Zm-2.717-14.6h2.717v5.942a4.8,4.8,0,0,1,1.411-.737,5.485,5.485,0,0,1,1.812-.288,4.737,4.737,0,0,1,2.193.48,4.219,4.219,0,0,1,1.478,1.269,5.3,5.3,0,0,1,.842,1.831,8.7,8.7,0,0,1,.266,2.16,6.614,6.614,0,0,1-.48,2.64,5.485,5.485,0,0,1-1.269,1.855,5.145,5.145,0,0,1-1.773,1.094,6,6,0,0,1-2,.355q-.785,0-1.44-.017c-.439-.012-.864-.026-1.27-.046s-.814-.05-1.214-.091-.821-.089-1.26-.149Zm-7.329,14.792h0a1.92,1.92,0,0,0,1.2-.379,2.853,2.853,0,0,0,.823-.993,5.038,5.038,0,0,0,.48-1.392,7.657,7.657,0,0,0,.158-1.577,6.979,6.979,0,0,0-.139-1.409,3.468,3.468,0,0,0-.468-1.159,2.369,2.369,0,0,0-.835-.79,2.47,2.47,0,0,0-1.248-.3,2.244,2.244,0,0,0-1.164.3,2.561,2.561,0,0,0-.842.833,4.1,4.1,0,0,0-.506,1.255,6.818,6.818,0,0,0-.022,2.976,4.558,4.558,0,0,0,.48,1.3,2.914,2.914,0,0,0,.847.96,2.086,2.086,0,0,0,1.236.37Zm.091,1.881h0a6.5,6.5,0,0,1-2.441-.43,4.833,4.833,0,0,1-1.781-1.217,5.231,5.231,0,0,1-1.094-1.908,7.75,7.75,0,0,1-.377-2.481,6.99,6.99,0,0,1,.343-2.2,5.148,5.148,0,0,1,1.046-1.817,4.989,4.989,0,0,1,1.764-1.248,6.272,6.272,0,0,1,2.5-.458,6.076,6.076,0,0,1,2.467.458,4.673,4.673,0,0,1,1.706,1.262,5.15,5.15,0,0,1,.989,1.881,8.23,8.23,0,0,1,.319,2.316,6.843,6.843,0,0,1-.372,2.268,5.587,5.587,0,0,1-1.078,1.857A5.158,5.158,0,0,1,232.255,339a5.444,5.444,0,0,1-2.275.461Zm-10.84-16.674h2.717v13.66a1.226,1.226,0,0,0,.173.753.574.574,0,0,0,.48.221,1.567,1.567,0,0,0,.586-.1c.161-.06.348-.137.554-.218l.461,1.4a4.531,4.531,0,0,1-.571.336,5.18,5.18,0,0,1-.646.278,5.728,5.728,0,0,1-.7.194,3.653,3.653,0,0,1-.72.074,3.983,3.983,0,0,1-.868-.1,1.719,1.719,0,0,1-.742-.363,1.838,1.838,0,0,1-.526-.734,3.184,3.184,0,0,1-.194-1.214Zm-1.778,15.292c-.379.2-.768.389-1.169.559a9.3,9.3,0,0,1-1.325.446,11.9,11.9,0,0,1-1.61.293,17.382,17.382,0,0,1-2.016.106,7.031,7.031,0,0,1-2.239-.336,6.185,6.185,0,0,1-3.149-2.328,7.935,7.935,0,0,1-.946-1.757,10.435,10.435,0,0,1-.557-1.992,12.236,12.236,0,0,1-.182-2.114,11.04,11.04,0,0,1,.221-2.208,9.775,9.775,0,0,1,.646-2.035,8.181,8.181,0,0,1,1.068-1.754,6.835,6.835,0,0,1,1.471-1.375,6.7,6.7,0,0,1,1.857-.9,7.259,7.259,0,0,1,2.227-.326c.4,0,.761.012,1.09.034a7.985,7.985,0,0,1,.917.11,4.95,4.95,0,0,1,.811.214,5.706,5.706,0,0,1,.775.341,6.821,6.821,0,0,1,.809.492q.418.286.922.672l-1.517,2.09a10.531,10.531,0,0,0-1.008-.828,4.743,4.743,0,0,0-.922-.523,4.142,4.142,0,0,0-.941-.274,6.812,6.812,0,0,0-1.082-.077,3.638,3.638,0,0,0-1.843.463,4.116,4.116,0,0,0-1.353,1.279,6.035,6.035,0,0,0-.83,1.9,9.284,9.284,0,0,0-.283,2.349,12.325,12.325,0,0,0,.24,2.513,6.885,6.885,0,0,0,.778,2.114,4.293,4.293,0,0,0,1.375,1.459,3.672,3.672,0,0,0,2.025.542,5.429,5.429,0,0,0,.7-.031c.247-.031.494-.05.746-.089s.5-.084.739-.137.463-.106.674-.161v-5.534h2.88Z" transform="translate(-71.135 -275.592)" fill="#036" fill-rule="evenodd"/>
    <path id="Path_417" data-name="Path 417" d="M547.094,333.75h0l3.691-4.173h3.4l-5.138,5.04,5.472,6.254h-3.261l-4.164-4.884v4.884h-2.721V324.48h2.721Zm-14.8-2.237h0c0-.226,0-.511-.019-.866a6.643,6.643,0,0,0-.118-1.07h2.563a1.812,1.812,0,0,1,.062.2c.019.086.041.182.067.281s.046.209.065.314.031.209.046.3a4.444,4.444,0,0,1,.607-.461,5.172,5.172,0,0,1,1.692-.706,4.653,4.653,0,0,1,1.029-.11,4.845,4.845,0,0,1,1.634.271,3.825,3.825,0,0,1,1.318.785,3.69,3.69,0,0,1,.885,1.258,4.191,4.191,0,0,1,.324,1.68v7.478h-2.719v-6.959a4.233,4.233,0,0,0-.137-1.15,1.9,1.9,0,0,0-.4-.761,1.513,1.513,0,0,0-.653-.418,2.8,2.8,0,0,0-.89-.132,4.252,4.252,0,0,0-.629.05,4.685,4.685,0,0,0-.684.139,6.759,6.759,0,0,0-.689.221,4.382,4.382,0,0,0-.634.281v8.733H532.3Zm-5.6,3.463h0a9.279,9.279,0,0,0-1.992.259,3.584,3.584,0,0,0-1.231.55,1.814,1.814,0,0,0-.636.794,2.744,2.744,0,0,0-.175,1,2.331,2.331,0,0,0,.1.766,1.2,1.2,0,0,0,.3.492,1.091,1.091,0,0,0,.48.264,2.1,2.1,0,0,0,.6.079c.2,0,.4-.012.6-.029a3.948,3.948,0,0,0,.636-.122,4.083,4.083,0,0,0,.655-.24,4.252,4.252,0,0,0,.679-.4Zm-6.614-3.861h0a6.378,6.378,0,0,1,2.114-1.26,7.331,7.331,0,0,1,2.573-.456,7.2,7.2,0,0,1,1.747.211,4.766,4.766,0,0,1,1.485.634,3.251,3.251,0,0,1,1.034,1.1,3.168,3.168,0,0,1,.386,1.6v5.04a3.67,3.67,0,0,0,.043.614.918.918,0,0,0,.139.384.554.554,0,0,0,.257.2,1.15,1.15,0,0,0,.389.055,2.736,2.736,0,0,0,.314-.031q.24-.034.439-.072l.293,1.2c-.168.1-.341.2-.514.293a3.663,3.663,0,0,1-.561.24,4.373,4.373,0,0,1-.646.166,4.74,4.74,0,0,1-.773.065,2.291,2.291,0,0,1-1.31-.365,1.6,1.6,0,0,1-.674-1.029,4.9,4.9,0,0,1-.909.679,5.082,5.082,0,0,1-.946.43,5.288,5.288,0,0,1-.96.221,7.705,7.705,0,0,1-.924.065,4.532,4.532,0,0,1-1.37-.2,2.779,2.779,0,0,1-1.037-.593,2.589,2.589,0,0,1-.66-.96,3.684,3.684,0,0,1-.24-1.358,4,4,0,0,1,.266-1.519,3.391,3.391,0,0,1,.737-1.126,4.008,4.008,0,0,1,1.121-.778,6.62,6.62,0,0,1,1.418-.48,11.518,11.518,0,0,1,1.625-.252q.857-.072,1.745-.072v-.408a2.624,2.624,0,0,0-.154-.96,1.758,1.758,0,0,0-.434-.65,1.853,1.853,0,0,0-.665-.37,2.9,2.9,0,0,0-.857-.12,3.758,3.758,0,0,0-.754.07,2.9,2.9,0,0,0-.72.24,4.542,4.542,0,0,0-.746.461,9.352,9.352,0,0,0-.861.739Zm-9.719-4.519h0v4.862h1.526a6.057,6.057,0,0,0,1.406-.146,3.121,3.121,0,0,0,1.08-.454,2.118,2.118,0,0,0,.684-.775,2.4,2.4,0,0,0,.24-1.1,2.9,2.9,0,0,0-.178-1.058,1.617,1.617,0,0,0-.6-.742,3.033,3.033,0,0,0-1.113-.439,8.585,8.585,0,0,0-1.718-.146Zm0,6.976h0v5.191h2.205a4.571,4.571,0,0,0,1.493-.218,3.17,3.17,0,0,0,1.046-.583,2.29,2.29,0,0,0,.61-.806,2.189,2.189,0,0,0,.2-.9,2.748,2.748,0,0,0-.2-1.037,2.211,2.211,0,0,0-.617-.852,3.118,3.118,0,0,0-1.073-.576,5.116,5.116,0,0,0-1.574-.214Zm2.361-9.09a8.377,8.377,0,0,1,2.237.278,5.118,5.118,0,0,1,1.68.8,3.648,3.648,0,0,1,1.075,1.286,3.928,3.928,0,0,1,.374,1.747,3.037,3.037,0,0,1-.24,1.2,4.01,4.01,0,0,1-.662,1.075,4.4,4.4,0,0,1-.984.845,4.265,4.265,0,0,1-1.2.53,5.62,5.62,0,0,1,1.315.418,4.441,4.441,0,0,1,1.231.828,4.156,4.156,0,0,1,.922,1.27,3.932,3.932,0,0,1,.36,1.74,3.855,3.855,0,0,1-.365,1.627,4.079,4.079,0,0,1-1.09,1.4,5.362,5.362,0,0,1-1.788.979,7.477,7.477,0,0,1-2.467.37H507.48V324.482Z" transform="translate(-301.657 -277.204)" fill="#036" fill-rule="evenodd"/>
    <path id="Path_418" data-name="Path 418" d="M35.039,281.66a18.5,18.5,0,1,1-18.529,18.5,18.5,18.5,0,0,1,18.529-18.5" transform="translate(71.49 -244.66)" fill="#f03" fill-rule="evenodd"/>
    <path id="Path_419" data-name="Path 419" d="M57.249,335.674h0V332.19l4.42.029a3.2,3.2,0,0,1,3.165,3.494c0,4.917-7.574,5.971-7.581-.038m0-9.242h0c8.155-4.279,8.874,5.121,3.95,4.672H57.234Zm7.106,5.1c5.846-2.239.96-10.955-8.608-5.563a7.459,7.459,0,0,0-3.4-1.562c-2.364-.48-5.534-.062-7.312,1.6l.859.842a6.412,6.412,0,0,1,6.791-1,2.754,2.754,0,0,1,1.5,1.845l.043,8.008h0c-.35,5.563-7.516,5.133-7.514,0V332.19h5.635v-1.061h-8.6v3.458c.022,6.573,8.018,7.679,11.977,4.48a8.822,8.822,0,0,0,5.616,1.728c7.1-.048,8.56-7.7,3-9.261Z" transform="translate(50.787 -277.009)" fill="#fff" fill-rule="evenodd"/>
  </g>
</svg>
