<svg xmlns="http://www.w3.org/2000/svg" width="20.672" height="23.405" viewBox="0 0 20.672 23.405">
  <g id="Group_6646" data-name="Group 6646" transform="translate(0 2.733)">
    <path id="Path_75286" data-name="Path 75286" d="M0,0H20.672V20.672H0Z" fill="none"/>
    <path id="Path_75287" data-name="Path 75287" d="M11.514,11.833a10.333,10.333,0,0,1,8.167,3.559l-.634-.82c-1.342-1.524-4.816-2.741-7.51-2.741s-6.063,1.217-7.405,2.741l-.761.82A10.282,10.282,0,0,1,11.514,11.833Zm0-16.132A4.72,4.72,0,0,1,16.3.279V3a4.59,4.59,0,0,1-4.679,4.535A4.636,4.636,0,0,1,6.89,3V.279A4.578,4.578,0,0,1,11.514-4.3Z" transform="translate(-1.201 3.066)" fill="none" stroke="#036" stroke-width="3"/>
  </g>
</svg>
