<svg xmlns="http://www.w3.org/2000/svg" width="73" height="73" viewBox="0 0 73 73">
  <g id="Group_6592" data-name="Group 6592" transform="translate(0 0.393)">
    <g id="Group_6586" data-name="Group 6586" transform="translate(0)">
      <rect id="Rectangle_2118" data-name="Rectangle 2118" width="73" height="73" rx="15" transform="translate(0 -0.393)" fill="#036" opacity="0.2"/>
    </g>
    <g id="unlock_user_avatar_people_male_profile" data-name="unlock, user, avatar, people, male, profile" transform="translate(23.393 19.998)">
      <path id="Path_75455" data-name="Path 75455" d="M21.52,16.53c3.4,0,6.14-3.75,6.14-6.86A5.94,5.94,0,0,0,21.52,4a6,6,0,0,0-6.15,5.7C15.37,12.78,18.12,16.53,21.52,16.53ZM21.52,6a3.94,3.94,0,0,1,4.14,3.7c0,2.14-1.95,4.86-4.14,4.86s-4.15-2.72-4.15-4.86A4,4,0,0,1,21.52,6ZM33,27.5a6.92,6.92,0,0,1-2.56,4.9A12.91,12.91,0,0,1,22,36h0a1,1,0,0,1,0-2,10.78,10.78,0,0,0,7.1-3A5.07,5.07,0,0,0,31,27.5,5,5,0,0,0,29.06,24a10.76,10.76,0,0,0-10.75-2.53,1,1,0,0,1-.62-1.9,12.79,12.79,0,0,1,12.75,3A6.9,6.9,0,0,1,33,27.5ZM16,28h0V26.5a3.517,3.517,0,1,0-7-.7,1.02,1.02,0,0,0,2,.4,1.507,1.507,0,0,1,3,.3V28H9a2,2,0,0,0-2,2v5a2,2,0,0,0,2,2h7a2,2,0,0,0,2-2V30A2,2,0,0,0,16,28Z" transform="translate(-7 -3.996)" fill="#fff" stroke="#fff" stroke-width="0.5"/>
      <g id="Path_75456" data-name="Path 75456" transform="translate(1.725 21.822)" fill="#fff">
        <path d="M 0.5000042319297791 2.931012392044067 L 0.5000042319297791 0.5000004768371582 L 2.014644145965576 0.5000004768371582 L 2.014644145965576 2.845722675323486 L 0.5000042319297791 2.931012392044067 Z" stroke="none"/>
        <path d="M 1.000004172325134 1.000000476837158 L 1.000004172325134 2.402064323425293 L 1.514644265174866 2.373085021972656 L 1.514644265174866 1.000000476837158 L 1.000004172325134 1.000000476837158 M 4.291534423828125e-06 4.76837158203125e-07 L 2.514644145965576 4.76837158203125e-07 L 2.514644145965576 3.318360567092896 L 4.291534423828125e-06 3.459960460662842 L 4.291534423828125e-06 4.76837158203125e-07 Z" stroke="none" fill="#fff"/>
      </g>
    </g>
  </g>
</svg>
