<svg width="42" height="42" viewBox="0 0 42 42" fill="none" xmlns="http://www.w3.org/2000/svg">
<path d="M19.777 33.694C17.6915 33.694 15.6405 33.1609 13.819 32.1453C11.9974 31.1297 10.4657 29.6654 9.36928 27.8913C8.27285 26.1173 7.6481 24.0924 7.55436 22.0089C7.46062 19.9255 7.901 17.8527 8.83368 15.9873C9.76636 14.122 11.1604 12.526 12.8834 11.3509C14.6064 10.1759 16.6011 9.46073 18.6782 9.27344C20.7553 9.08615 22.8458 9.43291 24.7512 10.2808C26.6566 11.1287 28.3137 12.4496 29.565 14.118H26.249C24.8362 12.8721 23.094 12.0603 21.2313 11.78C19.3686 11.4997 17.4645 11.7628 15.7477 12.5378C14.0308 13.3129 12.5741 14.5668 11.5522 16.1492C10.5304 17.7317 9.98684 19.5753 9.98684 21.459C9.98684 23.3427 10.5304 25.1863 11.5522 26.7688C12.5741 28.3512 14.0308 29.6051 15.7477 30.3802C17.4645 31.1552 19.3686 31.4183 21.2313 31.138C23.094 30.8578 24.8362 30.0459 26.249 28.8H29.565C28.4264 30.3206 26.9488 31.5548 25.2497 32.4043C23.5505 33.2539 21.6767 33.6955 19.777 33.694ZM28.342 26.353V22.683H18.553V20.235H28.342V16.565L34.459 21.459L28.342 26.353Z" fill="#EB2232"/>
</svg>
