<svg id="Group_6593" data-name="Group 6593" xmlns="http://www.w3.org/2000/svg" width="73" height="73" viewBox="0 0 73 73">
  <rect id="Rectangle_2118" data-name="Rectangle 2118" width="73" height="73" rx="15" fill="#036" opacity="0.2"/>
  <g id="noun_Limit_3187478" transform="translate(19.667 22.474)">
    <g id="Layer_5" data-name="Layer 5">
      <path id="Path_75457" data-name="Path 75457" d="M33.133,5H1.51A.51.51,0,0,0,1,5.51V21.832a.51.51,0,0,0,.51.51H33.133a.51.51,0,0,0,.51-.51V5.51A.51.51,0,0,0,33.133,5Zm-2.02,14.812H3.53V7.53H31.113Z" transform="translate(-1 -5)" fill="#fff"/>
      <path id="Path_75461" data-name="Path 75461" d="M33.133,47.078h-10.2v-.53a.51.51,0,0,0-.148-.362l-2.04-2.04a.51.51,0,0,0-.724,0l-2.04,2.04a.51.51,0,0,0-.148.362v.53H1.51c-.282,0-.391,1.225-.391,1.506s.109,1.534.391,1.534H17.832v1.53a.51.51,0,0,0,.51.51h4.08a.51.51,0,0,0,.51-.51v-1.53h10.2c.282,0,.629-1.252.629-1.534S33.415,47.078,33.133,47.078ZM21.4,50.628h0Z" transform="translate(-1 -24.105)" fill="#fff"/>
      <g id="Ellipse_421" data-name="Ellipse 421" transform="translate(12.322 4.671)" fill="none" stroke="#fff" stroke-width="2">
        <circle cx="4" cy="4" r="4" stroke="none"/>
        <circle cx="4" cy="4" r="3" fill="none"/>
      </g>
    </g>
  </g>
</svg>
