<svg width="22" height="30" viewBox="0 0 22 30" fill="none" xmlns="http://www.w3.org/2000/svg">
<path d="M21.8408 23.2072L19.854 20.1097V11.7394C19.854 7.0886 16.5491 3.24331 12.2524 2.60911V1.30446C12.2524 0.584151 11.692 0 11.0003 0C10.3088 0 9.74811 0.583845 9.74811 1.30446V2.60911C5.45148 3.24313 2.14651 7.08833 2.14651 11.7394V20.1097L0.159747 23.2072C-0.055596 23.6109 -0.0530984 24.1062 0.166484 24.5075C0.385819 24.9086 0.788307 25.1553 1.22426 25.1553H7.50912C7.66233 27.9474 9.49486 30 11.0002 30C12.5031 30 14.3309 27.8154 14.4906 25.1553H20.7762C21.2124 25.1553 21.6146 24.9086 21.834 24.5075C22.0528 24.1061 22.0556 23.6105 21.8407 23.207L21.8408 23.2072Z" fill="#EB2232"/>
</svg>
