<?xml version="1.0" encoding="UTF-8"?>
<svg width="700pt" height="700pt" version="1.1" viewBox="0 0 700 700" xmlns="http://www.w3.org/2000/svg">
 <path d="m349.59 419.67c-36.848-0.87891-71.258-15.844-97.062-42.258-26.219-26.836-40.418-62.27-39.969-99.781 0.1875-16.004 3.2344-31.645 8.6094-46.391l18.789 19.004c4.4805 4.5273 10.504 6.9492 16.641 6.9492 2.9492 0 5.9336-0.54688 8.7656-1.7148 8.7539-3.5195 14.527-11.98 14.641-21.418l1.3828-117.04c0.070313-6.2188-2.3203-12.184-6.6641-16.641-4.3438-4.4336-10.262-6.9727-16.48-7.043l-118.43-1.3477c-9.2227-0.27344-18.105 5.5078-21.809 14.266-3.7148 8.7305-1.7734 18.859 4.9023 25.602l28.418 28.746c-20.484 34.832-31.91 74.742-32.406 115.93-1.0547 90.172 48.625 173.16 135.98 216.26 29.445 14.527 62.375 20.543 95.207 20.543h0.71875c29.809 0 53.23-27.918 45.203-59.258-5.2773-20.586-25.191-33.902-46.438-34.406zm227.5 8.4805-28.418-28.746c20.484-34.832 31.91-74.742 32.406-115.93 1.0547-90.176-48.629-173.17-135.99-216.27-29.434-14.52-62.363-20.539-95.188-20.535h-0.71875c-29.801 0-53.219 27.898-45.207 59.227 5.2695 20.609 25.215 33.926 46.48 34.441 36.832 0.88672 71.227 15.852 97.023 42.254 26.219 26.84 40.418 62.27 39.969 99.785-0.1875 16.004-3.2344 31.645-8.6094 46.391l-18.789-19.004c-4.4805-4.5273-10.504-6.9492-16.641-6.9492-2.9492 0-5.9336 0.55078-8.7656 1.7148-8.7539 3.5156-14.527 11.973-14.641 21.414l-1.3828 117.04c-0.070313 6.2148 2.3203 12.184 6.6641 16.641 4.3438 4.4336 10.262 6.9727 16.48 7.043l118.43 1.3477c9.2227 0.27344 18.105-5.5117 21.809-14.266 3.7109-8.7305 1.7695-18.859-4.9062-25.602z"/>
</svg>
