<svg width="17" height="18" viewBox="0 0 17 18" fill="none" xmlns="http://www.w3.org/2000/svg">
<path d="M14.155 2.2384H16.7326C16.8787 2.2384 16.9973 2.11225 16.9973 1.95694C16.9973 1.80164 16.8787 1.67549 16.7326 1.67549H13.5562C13.4102 1.67549 13.2915 1.80164 13.2915 1.95694V5.33438C13.2915 5.48968 13.4102 5.61583 13.5562 5.61583C13.7023 5.61583 13.8209 5.48968 13.8209 5.33438V2.67917L14.1443 3.02306C15.6441 4.61778 16.4705 6.73823 16.4705 8.99339C16.4705 11.2486 15.6442 13.3689 14.1443 14.9637C11.9183 17.3313 8.58351 18.0777 5.64699 16.8635C5.51098 16.8061 5.35736 16.8787 5.30442 17.0233C5.25148 17.1686 5.31872 17.3318 5.45533 17.3876C6.45269 17.7996 7.49246 18 8.52434 18C10.732 18 12.9005 17.0825 14.5187 15.3611C16.1186 13.6606 17 11.3983 17 8.9929C17 6.58753 16.1186 4.32593 14.5187 2.62532L14.155 2.2384ZM3.49768 12.3707C3.35163 12.3707 3.23298 12.4968 3.23298 12.6521V15.3766L2.85553 14.9752C1.35572 13.3805 0.529344 11.2601 0.529344 9.00491C0.529344 6.74991 1.35569 4.62872 2.85553 3.03425C5.04462 0.706104 8.33529 -0.0589643 11.2391 1.08885C11.3747 1.14288 11.5282 1.06912 11.5796 0.922739C11.6304 0.776989 11.5606 0.614776 11.4234 0.560743C8.32682 -0.661952 4.81643 0.152621 2.48132 2.63619C0.881408 4.33671 0 6.59904 0 9.00442C0 11.4098 0.881438 13.672 2.48132 15.3726L2.83393 15.7481H0.321392C0.175335 15.7481 0.0566913 15.8742 0.0566913 16.0295C0.0566913 16.1848 0.175335 16.311 0.321392 16.311H3.42157C3.44272 16.3167 3.62056 16.2969 3.67256 16.2418C3.67469 16.2395 3.67516 16.2367 3.67729 16.2345C3.72916 16.1827 3.76249 16.1112 3.76249 16.0295V12.6521C3.76249 12.4968 3.64384 12.3707 3.49779 12.3707L3.49768 12.3707Z" fill="white" stroke-width="3%"/>
</svg>
