<svg xmlns="http://www.w3.org/2000/svg" width="19.476" height="24.588" viewBox="0 0 19.476 24.588">
  <g id="Group_6591" data-name="Group 6591" transform="translate(-22.254 -19.484)">
    <g id="unlock_user_avatar_people_male_profile" data-name="unlock, user, avatar, people, male, profile" transform="translate(22.504 19.735)">
      <path id="Path_75455" data-name="Path 75455" d="M17.6,13.144c2.481,0,4.481-2.737,4.481-5.007A4.335,4.335,0,0,0,17.6,4a4.379,4.379,0,0,0-4.489,4.16C13.109,10.407,15.116,13.144,17.6,13.144Zm0-7.685a2.876,2.876,0,0,1,3.022,2.7c0,1.562-1.423,3.547-3.022,3.547s-3.029-1.985-3.029-3.547A2.919,2.919,0,0,1,17.6,5.459ZM25.976,21.15a5.051,5.051,0,0,1-1.868,3.576,9.422,9.422,0,0,1-6.16,2.627h0a.73.73,0,1,1,0-1.46A7.868,7.868,0,0,0,23.13,23.7a3.7,3.7,0,0,0,1.387-2.554A3.649,3.649,0,0,0,23.1,18.6a7.853,7.853,0,0,0-7.846-1.847.73.73,0,0,1-.453-1.387,9.335,9.335,0,0,1,9.305,2.19,5.036,5.036,0,0,1,1.868,3.6Zm-12.407.365h0V20.42A2.567,2.567,0,0,0,8.46,19.91a.744.744,0,0,0,1.46.292,1.1,1.1,0,0,1,2.19.219v1.095H8.46A1.46,1.46,0,0,0,7,22.975v3.649a1.46,1.46,0,0,0,1.46,1.46h5.109a1.46,1.46,0,0,0,1.46-1.46V22.975A1.46,1.46,0,0,0,13.569,21.515ZM8.46,26.624V22.975h5.109v3.649Z" transform="translate(-7 -3.996)" fill="#fff" stroke="#fff" stroke-width="0.5"/>
    </g>
  </g>
</svg>
