<svg id="Group_7181" data-name="Group 7181" xmlns="http://www.w3.org/2000/svg" width="37" height="37" viewBox="0 0 37 37">
  <rect id="Rectangle_1760" data-name="Rectangle 1760" width="37" height="37" rx="5" fill="#beccdc" opacity="0.1"/>
  <g id="Group_5419" data-name="Group 5419" transform="translate(7 7)">
    <path id="Path_75286" data-name="Path 75286" d="M0,0H23V23H0Z" fill="none"/>
    <path id="Path_75287" data-name="Path 75287" d="M12.454,13.5a11.443,11.443,0,0,1,9.061,3.961l-.706-.912c-1.493-1.7-5.359-3.049-8.356-3.049s-6.746,1.354-8.239,3.049l-.821.911A11.44,11.44,0,0,1,12.454,13.5Zm0-16.5a5.158,5.158,0,0,1,5.264,5.046V5.074a5.158,5.158,0,0,1-5.264,5.046A5.158,5.158,0,0,1,7.19,5.074V2.046A5.158,5.158,0,0,1,12.454-3Z" transform="translate(-0.955 3.073)" fill="none" stroke="#fff" stroke-width="3"/>
  </g>
</svg>
