<svg xmlns="http://www.w3.org/2000/svg" width="20.524" height="23.249" viewBox="0 0 20.524 23.249">
  <g id="Group_7943" data-name="Group 7943" transform="translate(0 1.5)">
    <path id="Path_75286" data-name="Path 75286" d="M0,0H20.524V20.927H0Z" transform="translate(0 0.822)" fill="none"/>
    <path id="Path_75287" data-name="Path 75287" d="M12.167,12.31c3.743,0,7.041,1.47,8.822,3.665l-.685-.844c-1.449-1.569-5.2-2.822-8.112-2.822s-6.549,1.253-8,2.822l-.822.844A11.349,11.349,0,0,1,12.167,12.31Zm0-16.609A4.994,4.994,0,0,1,17.337.414v2.8a4.853,4.853,0,0,1-5.054,4.669,4.9,4.9,0,0,1-5.11-4.669V.414A4.835,4.835,0,0,1,12.167-4.3Z" transform="translate(-1.925 4.299)" fill="none" stroke="#fff" stroke-width="3"/>
  </g>
</svg>
