<svg xmlns="http://www.w3.org/2000/svg" width="26.523" height="32.111" viewBox="0 0 26.523 32.111">
  <g id="Group" transform="translate(0.5 0.5)">
    <path id="Compound_Path" data-name="Compound Path" d="M13.719,36.621a1.114,1.114,0,0,0,1.222-.216l2.193-1.977,2.624,2.336a1.078,1.078,0,0,0,.719.288,1.15,1.15,0,0,0,.719-.288l2.588-2.336,2.588,2.336a1.078,1.078,0,0,0,1.438,0l2.624-2.336,2.157,1.977a.863.863,0,0,0,1.078.216,1.078,1.078,0,0,0,.539-1.006v-5.1l.431-.323,2.193,1.977a1.042,1.042,0,0,0,.755.288.647.647,0,0,0,.359-.072,1.042,1.042,0,0,0,.575-1.006V8.73A2.624,2.624,0,0,0,35.824,6H20.368A2.925,2.925,0,0,0,17.313,8.73V9.952H16.055A3.127,3.127,0,0,0,13,12.935v22.68A1.258,1.258,0,0,0,13.719,36.621ZM18.751,8.73a1.493,1.493,0,0,1,1.617-1.294H35.824A1.186,1.186,0,0,1,37.082,8.73V30.583l-1.8-1.653c-.288-.288-.359-.359-1.078-.252V12.935a2.831,2.831,0,0,0-2.7-2.983H18.751Zm-4.313,4.205a1.689,1.689,0,0,1,1.617-1.546H31.511a1.4,1.4,0,0,1,1.258,1.546V34.824l-1.689-1.653a1.006,1.006,0,0,0-1.4-.036l-2.624,2.336L24.5,33.135a1.15,1.15,0,0,0-1.438,0l-2.588,2.336-2.624-2.336a1.186,1.186,0,0,0-1.546.036l-1.869,1.653Z" transform="translate(-13 -5.997)" fill="#036" stroke="#036" stroke-width="1"/>
    <path id="Path" d="M29.319,37.438h4.6a.719.719,0,0,0,0-1.438h-4.6a.719.719,0,1,0,0,1.438Z" transform="translate(-22.993 -25.216)" fill="#036" stroke="#036" stroke-width="1"/>
    <path id="Path-2" data-name="Path" d="M29.319,50.438h8.914a.719.719,0,1,0,0-1.438H29.319a.719.719,0,0,0,0,1.438Z" transform="translate(-22.993 -33.544)" fill="#036" stroke="#036" stroke-width="1"/>
    <path id="Path-3" data-name="Path" d="M29.319,63.438h8.914a.719.719,0,1,0,0-1.438H29.319a.719.719,0,1,0,0,1.438Z" transform="translate(-22.993 -41.871)" fill="#036" stroke="#036" stroke-width="1"/>
  </g>
</svg>
