<svg xmlns="http://www.w3.org/2000/svg" width="28.303" height="31.556" viewBox="0 0 28.303 31.556">
  <g id="Group_7077" data-name="Group 7077" transform="translate(0.525)">
    <path id="Path_75519" data-name="Path 75519" d="M28.364,93.162c-.231,0-.461-.026-.666-.026-.384,0-.794-.026-1.179-.051a4.907,4.907,0,0,1-2.793-.974,1.792,1.792,0,0,0-1.947-.231c-.1.051-.179.077-.282.128a2.217,2.217,0,0,1-.436.179.507.507,0,0,1-.256.051c-.077,0-.128-.051-.231-.282l-.026-.1c-.026-.1-.077-.179-.1-.282a1.592,1.592,0,0,0-1.537-1A1.528,1.528,0,0,0,17.448,91.6c-.051.154-.1.282-.154.436-.026.051-.051.128-.077.179a.556.556,0,0,1-.512.41.474.474,0,0,1-.487-.384,4.691,4.691,0,0,1-.1-1.23,6.5,6.5,0,0,1,.1-.743,4.82,4.82,0,0,0,.051-1.717,2.576,2.576,0,0,0-2.486-2.05,1.95,1.95,0,0,0-.538.077,2.67,2.67,0,0,0-2.024,2.614,7.626,7.626,0,0,0,.41,2.281l.051.2a9.928,9.928,0,0,1,.333,1.512,1.571,1.571,0,0,1-.359,1.332,1,1,0,0,1-1.076.307.628.628,0,0,0-.743.487.635.635,0,0,0,.384.769,2.432,2.432,0,0,0,.794.154.5.5,0,0,0,.2-.026,2.656,2.656,0,0,0,2.127-3.024A9.556,9.556,0,0,0,13.04,91.7c-.077-.282-.154-.564-.2-.846-.026-.1-.051-.2-.077-.333a6.451,6.451,0,0,1-.2-1.384,1.274,1.274,0,0,1,.359-.922,1.148,1.148,0,0,1,.82-.359h.051a1.2,1.2,0,0,1,1.127,1.307,10.918,10.918,0,0,1-.154,1.281l-.026.077a3.849,3.849,0,0,0,.154,2.2,1.921,1.921,0,0,0,1.768,1.256h.026A1.86,1.86,0,0,0,18.447,92.7c.026-.077.051-.128.077-.2a1.514,1.514,0,0,1,.154-.359.358.358,0,0,1,.231-.179.422.422,0,0,1,.256.2.633.633,0,0,1,.1.231c.026.051.026.1.051.154a1.506,1.506,0,0,0,2,.974,5.967,5.967,0,0,0,.717-.282c.077-.026.154-.077.231-.1a.587.587,0,0,1,.641.077,7.151,7.151,0,0,0,1.1.641,9.409,9.409,0,0,0,3.741.666h.564c.512,0,.794-.231.794-.666C29.133,93.47,28.851,93.188,28.364,93.162Z" transform="translate(-9.816 -65.182)" fill="#036" stroke="#036" stroke-width="1"/>
    <path id="Path_75520" data-name="Path 75520" d="M97.907,4.073c-.948-.256-1.9-.487-2.87-.717a1.669,1.669,0,0,0-2,1.358c-.128.487-.256,1-.384,1.486l-.1.41c0,.026-.026.077-.026.1H92.5l.436.1.128.026L97.984,8.1l.512.128.154-.589c.128-.461.231-.922.359-1.384A1.662,1.662,0,0,0,97.907,4.073Z" transform="translate(-71.312 -3.305)" fill="#036"/>
    <path id="Path_75521" data-name="Path 75521" d="M80.987,22.156l-.692,2.819c-.871,3.511-1.742,7.047-2.588,10.557a2.391,2.391,0,0,0-.051.846c.1,1.384.231,2.742.359,4.1l.077.974a2.791,2.791,0,0,0,.128.666,1.142,1.142,0,0,0,1.409.717,1.118,1.118,0,0,0,.487-.307,2.985,2.985,0,0,0,.41-.512l.512-.794c.615-.948,1.2-1.9,1.819-2.844l.077-.128a5.056,5.056,0,0,0,.743-1.537L85.061,31.1,87.034,23a.279.279,0,0,0,.026-.128l.154-.512L81.32,20.9Zm1.537,14.888c-.128.256-.282.487-.436.743l-.077.128c-.461.717-.871,1.358-1.256,1.973-.359-.1-.717-.179-1.076-.256l-.82-.256c-.1-1.025-.179-2.05-.256-3.075v-.256a1.337,1.337,0,0,0,1.076.1,1.665,1.665,0,0,0,.82.436,1.81,1.81,0,0,0,.974-.026A1.564,1.564,0,0,0,82.524,37.043Z" transform="translate(-60.26 -16.391)" fill="#036"/>
  </g>
</svg>
